<svg width="276" height="87" viewBox="0 0 276 87" fill="none" xmlns="http://www.w3.org/2000/svg">
<g filter="url(#filter0_d)">
<path d="M21.88 66C21.6667 66 21.56 65.8933 21.56 65.68L21.688 21.712C21.688 21.5413 21.7733 21.456 21.944 21.456L33.912 21.392C36.2587 21.3493 38.392 21.904 40.312 23.056C42.2747 24.208 43.832 25.7653 44.984 27.728C46.136 29.648 46.712 31.7813 46.712 34.128V52.496C46.712 54.9707 46.1147 57.232 44.92 59.28C43.7253 61.2853 42.1253 62.8853 40.12 64.08C38.1147 65.2747 35.8533 65.8933 33.336 65.936L21.88 66ZM29.368 58.128H33.336C34.9147 58.128 36.2373 57.5733 37.304 56.464C38.4133 55.3547 38.968 54.032 38.968 52.496V34.064C38.968 32.6987 38.456 31.5253 37.432 30.544C36.4507 29.52 35.2773 29.0293 33.912 29.072L29.432 29.136L29.368 58.128ZM52.0675 66C51.8542 66 51.7475 65.8933 51.7475 65.68L51.8115 21.712C51.8115 21.5413 51.8968 21.456 52.0675 21.456H59.2355C59.4062 21.456 59.4915 21.5413 59.4915 21.712L59.5555 65.68C59.5555 65.8933 59.4702 66 59.2995 66H52.0675ZM76.065 66.64C73.761 66.64 71.649 66.064 69.729 64.912C67.8517 63.7173 66.337 62.16 65.185 60.24C64.0757 58.2773 63.521 56.1227 63.521 53.776V50.832C63.521 50.6187 63.6277 50.512 63.841 50.512H71.009C71.1797 50.512 71.265 50.6187 71.265 50.832V53.776C71.265 55.184 71.7343 56.4 72.673 57.424C73.6117 58.4053 74.7423 58.896 76.065 58.896C77.3877 58.896 78.5183 58.384 79.457 57.36C80.3957 56.336 80.865 55.1413 80.865 53.776C80.865 52.1973 79.841 50.832 77.793 49.68C77.1103 49.296 76.0437 48.6987 74.593 47.888C73.1423 47.0773 71.777 46.3093 70.497 45.584C68.1503 44.2187 66.401 42.512 65.249 40.464C64.1397 38.3733 63.585 36.0267 63.585 33.424C63.585 31.0347 64.161 28.9013 65.313 27.024C66.465 25.104 67.9797 23.5893 69.857 22.48C71.777 21.3707 73.8463 20.816 76.065 20.816C78.3263 20.816 80.3957 21.392 82.273 22.544C84.193 23.6533 85.7077 25.168 86.817 27.088C87.969 28.9653 88.545 31.0773 88.545 33.424V38.672C88.545 38.8427 88.4597 38.928 88.289 38.928H81.121C80.9503 38.928 80.865 38.8427 80.865 38.672L80.801 33.424C80.801 31.9307 80.3317 30.7147 79.393 29.776C78.4543 28.8373 77.345 28.368 76.065 28.368C74.7423 28.368 73.6117 28.88 72.673 29.904C71.7343 30.8853 71.265 32.0587 71.265 33.424C71.265 34.832 71.5637 36.0053 72.161 36.944C72.7583 37.8827 73.8463 38.7787 75.425 39.632C75.6383 39.76 76.0437 39.9947 76.641 40.336C77.281 40.6347 77.9637 40.9973 78.689 41.424C79.4143 41.808 80.0543 42.1493 80.609 42.448C81.2063 42.7467 81.569 42.9387 81.697 43.024C83.8303 44.2187 85.5157 45.6907 86.753 47.44C87.9903 49.1467 88.609 51.2587 88.609 53.776C88.609 56.208 88.033 58.4053 86.881 60.368C85.7717 62.288 84.257 63.824 82.337 64.976C80.4597 66.0853 78.369 66.64 76.065 66.64ZM104.836 66.64C102.489 66.64 100.356 66.064 98.436 64.912C96.5587 63.7173 95.0653 62.1387 93.956 60.176C92.8467 58.2133 92.292 56.016 92.292 53.584L92.356 33.616C92.356 31.2693 92.8893 29.136 93.956 27.216C95.0653 25.2533 96.5587 23.696 98.436 22.544C100.356 21.3493 102.489 20.752 104.836 20.752C107.183 20.752 109.295 21.328 111.172 22.48C113.049 23.632 114.543 25.1893 115.652 27.152C116.761 29.072 117.316 31.2267 117.316 33.616V36.56C117.316 36.7307 117.231 36.816 117.06 36.816H109.892C109.721 36.816 109.636 36.7307 109.636 36.56V33.616C109.636 32.208 109.167 30.992 108.228 29.968C107.332 28.944 106.201 28.432 104.836 28.432C103.3 28.432 102.127 28.9653 101.316 30.032C100.505 31.056 100.1 32.2507 100.1 33.616V53.584C100.1 55.1627 100.548 56.4427 101.444 57.424C102.383 58.4053 103.513 58.896 104.836 58.896C106.201 58.896 107.332 58.3627 108.228 57.296C109.167 56.1867 109.636 54.9493 109.636 53.584V50.64C109.636 50.4693 109.721 50.384 109.892 50.384H117.124C117.295 50.384 117.38 50.4693 117.38 50.64V53.584C117.38 56.016 116.804 58.2133 115.652 60.176C114.543 62.1387 113.049 63.7173 111.172 64.912C109.295 66.064 107.183 66.64 104.836 66.64ZM133.9 66.64C131.596 66.64 129.484 66.064 127.564 64.912C125.687 63.7173 124.172 62.16 123.02 60.24C121.868 58.2773 121.292 56.1227 121.292 53.776L121.356 33.488C121.356 31.1413 121.911 29.008 123.02 27.088C124.172 25.168 125.708 23.632 127.628 22.48C129.548 21.328 131.639 20.752 133.9 20.752C136.204 20.752 138.295 21.328 140.172 22.48C142.049 23.632 143.543 25.168 144.652 27.088C145.804 29.008 146.38 31.1413 146.38 33.488L146.444 53.776C146.444 56.1227 145.868 58.2773 144.716 60.24C143.607 62.16 142.092 63.7173 140.172 64.912C138.295 66.064 136.204 66.64 133.9 66.64ZM133.9 58.896C135.18 58.896 136.289 58.384 137.228 57.36C138.209 56.2933 138.7 55.0987 138.7 53.776L138.636 33.488C138.636 32.08 138.188 30.8853 137.292 29.904C136.396 28.9227 135.265 28.432 133.9 28.432C132.577 28.432 131.447 28.9227 130.508 29.904C129.569 30.8427 129.1 32.0373 129.1 33.488V53.776C129.1 55.184 129.569 56.4 130.508 57.424C131.447 58.4053 132.577 58.896 133.9 58.896ZM157.353 66C157.182 66 157.076 65.8933 157.033 65.68L148.201 21.712C148.158 21.5413 148.244 21.456 148.457 21.456H155.689C155.86 21.456 155.966 21.5413 156.009 21.712L161.257 51.024L166.377 21.712C166.42 21.5413 166.526 21.456 166.697 21.456H173.865C174.078 21.456 174.164 21.5413 174.121 21.712L165.417 65.68C165.374 65.8933 165.268 66 165.097 66H157.353ZM178.129 66C177.958 66 177.873 65.8933 177.873 65.68L177.937 21.712C177.937 21.5413 178.022 21.456 178.193 21.456H198.737C198.907 21.456 198.993 21.5627 198.993 21.776V28.944C198.993 29.1147 198.907 29.2 198.737 29.2H185.617V39.184H198.737C198.907 39.184 198.993 39.2693 198.993 39.44L199.057 46.672C199.057 46.8427 198.971 46.928 198.801 46.928H185.617V58.128H198.801C198.971 58.128 199.057 58.2347 199.057 58.448V65.744C199.057 65.9147 198.971 66 198.801 66H178.129ZM205.004 66C204.833 66 204.748 65.8933 204.748 65.68L204.876 21.712C204.876 21.5413 204.961 21.456 205.132 21.456H218.06C220.364 21.456 222.476 22.032 224.396 23.184C226.358 24.2933 227.916 25.808 229.068 27.728C230.22 29.6053 230.796 31.7387 230.796 34.128C230.796 35.7067 230.561 37.136 230.092 38.416C229.622 39.6533 229.068 40.72 228.428 41.616C227.788 42.4693 227.212 43.1093 226.7 43.536C229.004 46.096 230.156 49.104 230.156 52.56L230.22 65.68C230.22 65.8933 230.113 66 229.9 66H222.668C222.497 66 222.412 65.936 222.412 65.808V52.56C222.412 51.024 221.857 49.7013 220.748 48.592C219.681 47.44 218.358 46.864 216.78 46.864H212.556L212.492 65.68C212.492 65.8933 212.406 66 212.236 66H205.004ZM212.556 39.184H218.06C219.382 39.184 220.556 38.6933 221.58 37.712C222.604 36.7307 223.116 35.536 223.116 34.128C223.116 32.7627 222.604 31.5893 221.58 30.608C220.598 29.6267 219.425 29.136 218.06 29.136H212.556V39.184ZM239.637 66C239.509 66 239.445 65.9147 239.445 65.744L239.509 47.568L230.933 21.712C230.89 21.5413 230.954 21.456 231.125 21.456H238.229C238.442 21.456 238.57 21.5413 238.613 21.712L243.349 38.928L248.149 21.712C248.192 21.5413 248.298 21.456 248.469 21.456H255.637C255.808 21.456 255.872 21.5413 255.829 21.712L247.189 47.312L247.253 65.744C247.253 65.9147 247.168 66 246.997 66H239.637Z" fill="white"/>
</g>
<rect y="22" width="19" height="45" rx="2" fill="#FFB526"/>
<path d="M5.55647 49.6442L5.54445 53.1286L15.021 53.1425L15.0129 55.4862L5.53637 55.4723L5.52451 58.9098L3.62607 58.907L3.65804 49.6414L5.55647 49.6442ZM12.7128 42.8266L12.6987 46.9359L15.0397 47.7206L15.0311 50.2128L3.67073 45.9618L3.67822 43.7899L15.0679 39.5488L15.0593 42.041L12.7128 42.8266ZM10.8024 46.3003L10.8122 43.4566L6.54947 44.88L10.8024 46.3003ZM13.6645 29.6561C14.1683 30.0787 14.5594 30.6757 14.838 31.4469C15.1114 32.2181 15.2465 33.0725 15.2433 34.01C15.2399 34.9944 15.0233 35.8586 14.5937 36.6028C14.1588 37.3417 13.5319 37.9137 12.7128 38.3188C11.8937 38.7186 10.932 38.9229 9.82782 38.9317L9.05438 38.9306C7.91896 38.9289 6.93785 38.7374 6.11104 38.356C5.27904 37.9693 4.64552 37.4163 4.2105 36.6969C3.77029 35.9723 3.55186 35.1257 3.5552 34.1569C3.55985 32.808 3.88641 31.7538 4.53486 30.9943C5.17811 30.2348 6.11456 29.7857 7.34421 29.6468L7.33634 31.9281C6.68494 32.0313 6.20758 32.2624 5.90426 32.6213C5.60095 32.975 5.44822 33.4644 5.44607 34.0894C5.44332 34.8862 5.7407 35.4934 6.33822 35.911C6.93574 36.3285 7.82564 36.5408 9.00791 36.5477L9.73447 36.5488C10.9272 36.5505 11.829 36.3253 12.4399 35.8731C13.0509 35.4208 13.3579 34.7572 13.3609 33.8822C13.3639 33.002 13.1786 32.3742 12.8049 31.9986L10.8439 31.9957L10.8366 34.1285L9.11002 34.126L9.12546 29.6495L13.6645 29.6561Z" fill="#624110"/>
<path d="M4.5 19.5H7.5C8.32843 19.5 9 20.1716 9 21V23C9 23.8284 8.32843 24.5 7.5 24.5H4.5C3.67157 24.5 3 23.8284 3 23V21C3 20.1716 3.67157 19.5 4.5 19.5Z" fill="#624110" stroke="#FFB526"/>
<rect x="10.5" y="19.5" width="6" height="5" rx="1.5" fill="#624110" stroke="#FFB526"/>
<defs>
<filter id="filter0_d" x="1.56" y="0.752014" width="274.282" height="85.888" filterUnits="userSpaceOnUse" color-interpolation-filters="sRGB">
<feFlood flood-opacity="0" result="BackgroundImageFix"/>
<feColorMatrix in="SourceAlpha" type="matrix" values="0 0 0 0 0 0 0 0 0 0 0 0 0 0 0 0 0 0 127 0"/>
<feOffset/>
<feGaussianBlur stdDeviation="10"/>
<feColorMatrix type="matrix" values="0 0 0 0 1 0 0 0 0 1 0 0 0 0 1 0 0 0 0.24 0"/>
<feBlend mode="normal" in2="BackgroundImageFix" result="effect1_dropShadow"/>
<feBlend mode="normal" in="SourceGraphic" in2="effect1_dropShadow" result="shape"/>
</filter>
</defs>
</svg>
